<?xml version="1.0" encoding="UTF-8"?>
<svg id="motion" xmlns="http://www.w3.org/2000/svg" viewBox="0 0 268.35 250.12">
  <defs>
    <style>
      .cls-1 {
        fill: #43a047;
      }

      .cls-1, .cls-2, .cls-3, .cls-4, .cls-5, .cls-6, .cls-7 {
        stroke-width: 0px;
      }

      .cls-2 {
        fill: #0b0b0a;
      }

      .cls-3 {
        fill: #000;
      }

      .cls-4 {
        fill: #a9a7a6;
      }

      .cls-5 {
        fill: #e6972d;
      }

      .cls-6 {
        fill: #fff;
      }

      .cls-7 {
        fill: #ff375f;
      }
    </style>
  </defs>
  <g>
    <path class="cls-3" d="M248.79,118.85l-36.3-74.43s-.01-.03-.02-.05l-1.74-3.57c-2.38-4.88-6.01-9.06-10.51-12.11-4.49-3.04-9.73-4.86-15.14-5.25l-85.65-6.29c-11.12-.81-21.88,4.44-28.08,13.7L23.56,102.2c-3.02,4.51-4.81,9.75-5.18,15.17-.37,5.41.69,10.85,3.07,15.73l1.74,3.57s.01.03.02.05l36.3,74.43c1.19,2.41,2.69,4.66,4.44,6.68,1.76,2.02,3.78,3.81,6.01,5.32,4.46,3.02,9.66,4.83,15.03,5.25h.1s.01.01.02.01l85.64,6.28c5.56.41,11.03-.7,15.89-3.07,4.85-2.36,9.09-5.99,12.19-10.62l47.79-71.35s.01,0,.01-.02l.06-.08c1.49-2.25,2.68-4.67,3.54-7.21.86-2.53,1.4-5.18,1.58-7.86.36-5.38-.68-10.78-3.02-15.63ZM31.81,107.4l47.64-71.13c2.13-3.17,5.04-5.66,8.37-7.29,3.33-1.62,7.08-2.38,10.9-2.1l85.38,6.26c1.12.08,1.93.52,2.5,1.02s.91,1.06,1.07,1.4c.33.67.95,2.43-.28,4.29l-35.95,53.67-11.72,17.5c-4.25,6.33-11.61,9.92-19.22,9.37l-71.74-5.26-13.67-1c-1.12-.08-1.93-.52-2.5-1.02-.58-.5-.91-1.07-1.07-1.4-.33-.67-.96-2.44.29-4.31ZM173.36,222.18c-.57.84-2.21,2.77-5.24,2.54l-82.32-6.03c-7.53-.56-14.27-5.13-17.58-11.92l-36.26-74.36c-1.3-2.71-.14-4.94.43-5.78.56-.83,2.21-2.76,5.24-2.54l7.62.56,74.51,5.47h.02l9.04.66c2.06.15,3.9,1.4,4.8,3.25l40.15,82.34c1.33,2.73.16,4.97-.41,5.81ZM238.53,144.21l-45.93,68.57c-1.69,2.53-4.22,2.64-5.23,2.57s-3.5-.52-4.83-3.25l-40.15-82.34c-.91-1.86-.76-4.08.39-5.79l5.04-7.52s.01-.02.02-.03l11.27-16.83,34.55-51.58c1.7-2.53,4.23-2.64,5.24-2.57,1,.07,3.47.52,4.81,3.22l36.26,74.36c3.31,6.79,2.76,14.91-1.44,21.19Z"/>
    <path class="cls-3" d="M238.53,144.21l-45.93,68.57c-1.69,2.53-4.22,2.64-5.23,2.57s-3.5-.52-4.83-3.25l-40.15-82.34c-.91-1.86-.76-4.08.39-5.79l5.04-7.52s.01-.02.02-.03l11.27-16.83,34.55-51.58c1.7-2.53,4.23-2.64,5.24-2.57,1,.07,3.47.52,4.81,3.22l36.26,74.36c3.31,6.79,2.76,14.91-1.44,21.19Z"/>
    <path class="cls-6" d="M173.36,222.18c-.57.84-2.21,2.77-5.24,2.54l-82.32-6.03c-7.53-.56-14.27-5.13-17.58-11.92l-36.26-74.36c-1.3-2.71-.14-4.94.43-5.78.56-.83,2.21-2.76,5.24-2.54l7.62.56,74.51,5.47h.02l9.04.66c2.06.15,3.9,1.4,4.8,3.25l40.15,82.34c1.33,2.73.16,4.97-.41,5.81Z"/>
    <path class="cls-6" d="M187.39,39.85l-35.95,53.67-11.72,17.5c-4.25,6.33-11.61,9.92-19.22,9.37l-71.74-5.26-13.67-1c-1.12-.08-1.93-.52-2.5-1.02-.58-.5-.91-1.07-1.07-1.4-.33-.67-.96-2.44.29-4.31l47.64-71.13c2.13-3.17,5.04-5.66,8.37-7.29,3.33-1.62,7.08-2.38,10.9-2.1l85.38,6.26c1.12.08,1.93.52,2.5,1.02s.91,1.06,1.07,1.4c.33.67.95,2.43-.28,4.29Z"/>
  </g>
  <g>
    <path class="cls-1" d="M78.82,178.39l-11.7-.68,4.18,8.56,13.85.85,3.26,6.69-21.27-1.37-17.41-35.71,21.15,1.03,3.27,6.71-13.83-.72,3.68,7.55,11.68.64,3.14,6.43Z"/>
    <path class="cls-1" d="M104.31,194.83c-.53-.57-1.15-1.39-1.87-2.46-.4,1.86-1.8,2.71-4.21,2.55-2.2-.14-4.44-1.03-6.72-2.66-2.28-1.63-3.98-3.59-5.11-5.91-1.42-2.91-1.56-5.05-.43-6.43s3.48-1.97,7.04-1.77l2.25.13-.7-1.43c-1.21-2.49-2.75-3.78-4.6-3.88-1.72-.09-2.1.84-1.15,2.8l-7.22-.41c-1.26-2.59-1.34-4.64-.23-6.16,1.12-1.52,3.15-2.2,6.12-2.04s5.74,1.12,8.29,2.89c2.56,1.78,4.57,4.13,6.05,7.07l5.84,11.98c1.24,2.49,2.5,4.41,3.78,5.77l.21.43-7.34-.47ZM97.06,189.07c.91.06,1.55-.12,1.93-.53s.56-.89.55-1.44l-2.1-4.31-2.12-.13c-2.53-.15-3.16,1.08-1.88,3.7.37.76.9,1.39,1.57,1.89s1.36.77,2.05.81Z"/>
    <path class="cls-1" d="M123.47,188.65c-.35-.72-.97-1.32-1.84-1.8s-2.35-1-4.43-1.59-3.9-1.29-5.47-2.12c-1.57-.83-2.93-1.81-4.09-2.93s-2.07-2.38-2.76-3.79c-1.21-2.49-1.32-4.49-.31-6,1.01-1.52,2.96-2.2,5.87-2.05,3.14.17,6.06,1.11,8.77,2.85,2.72,1.74,4.72,3.94,6.02,6.6l-7.48-.42c-1.06-2.18-2.6-3.33-4.61-3.44-.78-.04-1.31.17-1.59.63s-.25,1.07.11,1.8.99,1.38,1.86,1.89,2.09.95,3.66,1.33c1.57.38,2.99.82,4.27,1.3,4.29,1.62,7.34,4.26,9.12,7.92,1.22,2.49,1.23,4.46.04,5.9-1.19,1.44-3.32,2.06-6.4,1.86-2.05-.13-4.07-.67-6.08-1.61s-3.8-2.15-5.39-3.65c-1.59-1.49-2.77-3.03-3.54-4.61l6.9.42c.64,1.26,1.46,2.2,2.44,2.82s2.03.97,3.13,1.04c1.02.06,1.66-.12,1.94-.56s.24-1.04-.13-1.79Z"/>
    <path class="cls-1" d="M141.81,185.63l-3.52-15.29,8.15.43,5.71,31.6.14,1.14c.32,3.46-1.31,5.07-4.89,4.82-.99-.07-2.11-.31-3.37-.72l-2.96-6.08.99.07c1.06.07,1.79-.05,2.18-.36s.51-.9.34-1.78l-.29-1.79-21.9-28.17,8.02.42,11.39,15.7Z"/>
  </g>
  <g>
    <path class="cls-7" d="M192.29,163.04l-4.55,7.05-8.45-16.26-6.84,10.45,8.49,16.35-4.65,7.21-20.41-39.28,4.72-7.07,8.07,15.54,6.86-10.41-8.03-15.46,4.62-6.92,20.17,38.82Z"/>
    <path class="cls-7" d="M202.8,146.74c-.46-.34-1.04-.99-1.74-1.93.28,3.29-.3,6.05-1.73,8.26-1.31,2.03-2.86,2.95-4.63,2.73s-3.31-1.56-4.6-4.05c-1.62-3.12-2.29-6.35-1.99-9.67.3-3.31,1.52-6.6,3.65-9.87l1.34-2.05-.79-1.52c-1.37-2.64-2.61-3.12-3.73-1.43-1.04,1.57-1.01,3.41.08,5.5l-4.38,6.67c-1.45-2.78-2.04-5.92-1.78-9.42.26-3.49,1.29-6.59,3.08-9.29s3.66-3.94,5.61-3.72c1.95.22,3.74,1.86,5.38,4.91l6.57,12.63c1.38,2.59,2.62,4.3,3.71,5.11l.23.45-4.29,6.65ZM197.07,145.1c.54-.83.86-1.76.97-2.79.11-1.02.08-1.95-.08-2.79l-2.38-4.58-1.26,1.93c-1.51,2.32-1.55,4.88-.09,7.67.42.81.9,1.27,1.43,1.36s1-.18,1.41-.81Z"/>
    <path class="cls-7" d="M206.55,104.23l-1.51,1.92c-1.34,2.04-1.75,4.23-1.22,6.56l9.34,17.98-4.26,6.59-14.8-28.49,4.04-6.1,2.04,3.44c-.72-3.87-.44-6.78.84-8.72.46-.69.91-1.18,1.35-1.48l4.18,8.3Z"/>
    <path class="cls-7" d="M210.65,108.68c-2.33-4.48-3.7-8.72-4.1-12.71-.41-3.99.22-7.24,1.89-9.75,1.21-1.83,2.74-2.38,4.59-1.65l-7.4-14.24,4.22-6.31,20.67,39.78-3.72,5.77-1.78-2.69c.37,3.68-.11,6.54-1.43,8.59-1.6,2.47-3.53,3.15-5.81,2.03s-4.66-4.07-7.13-8.83ZM215.15,102.77c2.6,5,4.6,6.43,5.99,4.29.93-1.43,1.16-3.26.71-5.5l-5.56-10.7c-1.25-1.08-2.33-.92-3.26.5-1.3,1.97-.87,5.23,1.3,9.78l.83,1.64Z"/>
  </g>
  <g>
    <path class="cls-4" d="M156.65,74.38c1.82-2.78.05-4.82-3.86-4.6l-49.52,2.81c-3,.17-7.07,2.23-9.17,4.63-2.13,2.44-1.47,4.38,1.57,4.28l50.3-1.69c3.99-.13,8.82-2.59,10.68-5.43Z"/>
    <path class="cls-5" d="M58.88,90.55l2.55,15.96c.67,4.07,4.86,6.33,11.61,6.71,7.03.4,15.44-1.49,23.73-5.56l22.1-10.91c4.33-2.12,6.75-5.61,5.45-7.72-1.27-2.05-5.61-2.05-9.71-.03l-21.3,10.22c-3.73,1.83-7.39,2.55-10.67,2.48s-5.42-.89-5.92-2.72l-3.99-15.22c-.39-1.45.74-3.59,2.82-5.82,2.05-2.19,4.77-4.2,7.85-5.71l28.68-14.14c3.08-1.51,6.27-2.28,9.3-2.58,3.08-.3,5.44-.01,6.41,1.16l6.23,6.97c1.23,1.49,5.5,1.13,9.5-.83,4-1.96,6.08-4.71,4.66-6.11l-6.6-6.68c-1.58-1.54-4.32-2.4-7.88-2.53h-.13s16.33-8.06,16.33-8.06c3.4-1.66,5.01-3.86,3.65-4.89-1.33-1.01-5.02-.52-8.28,1.07l-63.9,31.28c-6.21,3.04-11.83,7.07-16.14,11.52s-6.89,8.98-6.37,12.14Z"/>
    <path class="cls-2" d="M61.85,107.6c-.39-.41-.64-.91-.73-1.49-.86-5.21-1.71-10.07-2.44-14.67-1.02-6.41,6.57-15.28,18.69-22.52,1.87-1.1,3.81-2.13,5.78-3.07l61.19-29.87c3.97-1.94,7.87-2.55,9.33-1.45,1.44,1.09-.49,3.43-4.52,5.4-5.11,2.5-10.23,5-15.34,7.51-.45.35-1.06.62-1.63.9-5.76,2.83-11.56,5.6-17.3,8.46-.75.37-1.55.63-2.3,1.01-9.44,4.6-18.9,9.16-28.3,13.81-7.62,3.77-12.62,9.24-11.69,12.92,1.1,4.38,2.44,8.96,3.8,13.88.07.26.16.51.24.76,1.06,1.2-2.1,4.9-4.83,6.53-3.02,1.81-5.85,2.88-8.33,2.68-.83-.06-1.24-.41-1.62-.81Z"/>
  </g>
  <path class="cls-3" d="M208.09,24.59c.87.15,1.72.34,2.56.59.42.13.84.27,1.25.42.18.07.37.16.56.21-1.19-.33-.56-.24-.2-.08.76.35,1.5.74,2.22,1.17.38.23.74.46,1.11.71.16.11.33.23.49.35.79.58-.51-.42-.15-.12.65.53,1.28,1.08,1.87,1.67.55.55,1.4,1.26,1.74,1.97-.11-.24-.63-.84-.2-.24.12.16.23.32.34.49.27.4.52.8.76,1.21.2.34.39.69.57,1.05s.82,1.86.24.45c.47,1.13.97,2.05,2.07,2.69.96.56,2.39.8,3.47.45s2.14-1.03,2.69-2.07.9-2.38.45-3.47c-1.69-4.09-4.16-7.79-7.65-10.57s-7.42-4.83-11.8-5.57c-1.23-.21-2.36-.2-3.47.45-.93.55-1.82,1.62-2.07,2.69-.5,2.18.66,5.12,3.14,5.54h0Z"/>
  <path class="cls-3" d="M218.01,14.67c.87.15,1.72.34,2.56.59.42.13.84.27,1.25.42.18.07.37.16.56.21-1.19-.33-.56-.24-.2-.08.76.35,1.5.74,2.22,1.17.38.23.74.46,1.11.71.16.11.33.23.49.35.79.58-.51-.42-.15-.12.65.53,1.28,1.08,1.87,1.67.55.55,1.4,1.26,1.74,1.97-.11-.24-.63-.84-.2-.24.12.16.23.32.34.49.27.4.52.8.76,1.21.2.34.39.69.57,1.05s.82,1.86.24.45c.47,1.13.97,2.05,2.07,2.69.96.56,2.39.8,3.47.45s2.14-1.03,2.69-2.07.9-2.38.45-3.47c-1.69-4.09-4.16-7.79-7.65-10.57s-7.42-4.83-11.8-5.57c-1.23-.21-2.36-.2-3.47.45-.93.55-1.82,1.62-2.07,2.69-.5,2.18.66,5.12,3.14,5.54h0Z"/>
</svg>